HIERARCHY
ROOT Hips
{
  OFFSET 0 0 0
  CHANNELS 6 Xposition Yposition Zposition Zrotation Yrotation Xrotation
  JOINT LeftThigh
  {
    OFFSET 8.409438 0 -5.917753
    CHANNELS 3 Zrotation Yrotation Xrotation
    JOINT LeftLeg
    {
      OFFSET 0 0 -42.358652
      CHANNELS 3 Zrotation Yrotation Xrotation
      JOINT LeftFoot
      {
        OFFSET 0 0 -39.357303
        CHANNELS 3 Zrotation Yrotation Xrotation
      }
    }
  }
  JOINT RightThigh
  {
    OFFSET -8.409438 0 -5.917753
    CHANNELS 3 Zrotation Yrotation Xrotation
    JOINT RightLeg
    {
      OFFSET 0 0 -42.358652
      CHANNELS 3 Zrotation Yrotation Xrotation
      JOINT RightFoot
      {
        OFFSET 0 0 -39.357303
        CHANNELS 3 Zrotation Yrotation Xrotation
      }
    }
  }
  JOINT SpineLow
  {
    OFFSET 0 0 4.719101
    CHANNELS 3 Zrotation Yrotation Xrotation
    JOINT SpineMid
    {
      OFFSET 0 0 12.899191
      CHANNELS 3 Zrotation Yrotation Xrotation
      JOINT Chest
      {
        OFFSET 0 0 12.899191
        CHANNELS 3 Zrotation Yrotation Xrotation
        JOINT LeftShoulder
        {
          OFFSET 7.550562 1.41573 9.438202
          CHANNELS 3 Zrotation Yrotation Xrotation
          JOINT LeftArm
          {
            OFFSET 9.155056 0 4.247191
            CHANNELS 3 Zrotation Yrotation Xrotation
            JOINT LeftForearm
            {
              OFFSET 0 0 25.771955
              CHANNELS 3 Zrotation Yrotation Xrotation
              JOINT LeftHand
              {
                OFFSET 0 0 25.197169
                CHANNELS 3 Zrotation Yrotation Xrotation
              }
            }
          }
        }
        JOINT RightShoulder
        {
          OFFSET -7.550562 1.41573 9.438202
          CHANNELS 3 Zrotation Yrotation Xrotation
          JOINT RightArm
          {
            OFFSET -9.155056 0 4.247191
            CHANNELS 3 Zrotation Yrotation Xrotation
            JOINT RightForearm
            {
              OFFSET 0 0 -25.771955
              CHANNELS 3 Zrotation Yrotation Xrotation
              JOINT RightHand
              {
                OFFSET 0 0 -25.197169
                CHANNELS 3 Zrotation Yrotation Xrotation
              }
            }
          }
        }
        JOINT Neck
        {
          OFFSET 0 0 15.101124
          CHANNELS 3 Zrotation Yrotation Xrotation
          JOINT Head
          {
            OFFSET 0 0 11.325843
            CHANNELS 3 Zrotation Yrotation Xrotation
            End Site
            {
              OFFSET 0 0 14.157303
            }
          }
        }
      }
    }
  }
}
MOTION
Frames: 7
Frame Time: 0.0
0.0  89.887642  0.0  -83.239121  34.736067  -163.269525  39.504759  -60.810772  -53.716599  -4.176295  13.533859  27.350715  -0.981069  1.305411  8.771696  -32.365692  22.362186  -58.830914  1.392121  -2.25065  19.291217  -1.087247  7.202245  1.590778  -0.603707  -3.748993  -1.20787  -1.472162  -10.274223  -3.231218  -1.472162  -10.274223  -3.231218  -16.304324  22.433502  8.309149  140.760999  59.559773  -134.48529  -22.742557  -7.668225  81.458093  69.851773  -1.509804  31.177535  -22.527973  13.376659  19.210791  56.90074  50.010518  29.910853  -50.277572  -54.451988  -25.910394  85.912581  -10.475533  -24.118102  -54.144998  8.940436  16.340636  -40.799779  5.307165  13.155596  
0.0  89.887642  0.0  -80.44285  33.655529  -162.37381  41.44995  -60.146547  -52.507344  -5.337219  12.306929  27.168188  -1.342022  1.460051  8.838445  -38.805539  8.295797  -64.78961  4.753554  -1.521072  26.462303  0.707117  7.472227  1.181161  -0.295838  -3.806739  -1.478467  -0.578408  -10.418898  -4.025153  -0.578408  -10.418898  -4.025153  -16.039664  24.906869  12.082921  146.106949  58.967034  -130.227676  -21.557977  -5.333125  81.551418  70.973071  -1.081793  30.225457  -21.938435  15.116951  21.86366  56.420484  51.768459  29.012834  -48.513459  -52.117459  -27.147343  85.105378  -11.399007  -23.483683  -53.393306  11.203292  16.347911  -40.250563  7.041539  13.337307  
0.0  89.887642  0.0  -77.771242  32.400757  -161.603604  43.323333  -60.145726  -51.413741  -6.413073  11.583562  27.099842  -1.581733  1.6237  8.709443  -43.050994  -2.902729  -67.523928  8.061957  -0.764825  32.599382  1.772636  7.362495  0.763423  -0.071936  -3.871326  -1.547031  0.053287  -10.581479  -4.250702  0.053287  -10.581479  -4.250702  -15.501597  26.308238  14.416997  148.216991  57.804552  -128.068042  -21.300651  -3.680793  81.318324  71.427199  -0.668135  29.0317  -20.86501  16.254608  23.577282  56.16666  53.037289  28.322362  -47.124852  -49.581572  -28.559143  86.419333  -12.232967  -22.900151  -52.476366  12.48727  16.701668  -39.57723  8.007342  13.688312  
0.0  89.887642  0.0  -75.565264  31.44307  -160.905246  44.250529  -61.039465  -50.375501  -6.982769  11.9086  27.173343  -1.388174  1.732817  8.66687  -43.711032  -7.899227  -67.347681  8.137857  0.147743  36.205521  2.684406  7.327967  0.498661  0.029111  -3.838296  -1.300584  0.289668  -10.486485  -3.587557  0.289668  -10.486485  -3.587557  -15.333397  26.746855  14.076139  146.647999  56.964485  -128.787534  -21.807888  -2.980502  80.863136  71.567031  -0.604995  27.069892  -19.501999  16.510548  23.651866  55.058155  53.6211  26.6467  -45.546622  -46.230746  -30.637297  88.46936  -13.150679  -22.417926  -51.386494  12.255424  16.893793  -38.766522  7.84288  13.786275  
0.0  89.887642  0.0  -74.047184  30.786084  -160.309878  44.169479  -62.448993  -49.507722  -7.08422  12.940454  27.435031  -0.897439  1.920662  8.784692  -41.119842  -8.81658  -68.277276  6.603619  0.931012  40.057441  3.058102  7.151145  0.37323  0.15264  -3.677393  -1.018661  0.577159  -10.043178  -2.827913  0.577159  -10.043179  -2.827913  -16.199228  26.461939  12.842625  143.084134  56.491794  -131.11492  -22.727091  -2.652013  80.34565  71.980117  -0.634232  24.72672  -19.198784  15.991709  22.8038  53.824355  53.50702  25.052237  -43.439822  -42.141589  -33.560518  89.601324  -13.666267  -22.881719  -50.779253  11.38631  17.207412  -38.315618  7.173711  13.938299  
0.0  89.887642  0.0  -72.295701  30.233122  -159.26113  44.101614  -63.709521  -48.832656  -6.556487  14.102135  28.093869  -0.690848  2.092954  8.796702  -37.485412  -6.511881  -71.632912  3.746932  -0.27197  45.550607  3.199735  7.140011  0.118722  0.408359  -3.425272  -0.785578  1.235591  -9.347811  -2.219089  1.235591  -9.347812  -2.219089  -17.601797  25.826957  12.003172  139.508481  56.636308  -133.223703  -23.448247  -2.522092  79.741395  72.518562  -0.695254  22.59463  -19.577013  14.604996  21.528992  52.733182  53.221304  24.096503  -41.225134  -37.856744  -36.67852  89.856906  -13.938857  -23.666588  -50.630471  10.333848  17.688661  -38.207089  6.340142  14.214439  
0.0  89.887642  0.0  -70.191824  30.263713  -158.754098  42.00129  -64.605108  -45.66304  -5.466181  14.836733  28.854413  -1.123709  2.161017  8.765815  -34.399542  -2.233585  -73.626758  0.915011  -2.893198  49.718295  3.700831  7.175002  -0.086712  0.625516  -3.107105  -0.490221  1.782022  -8.479135  -1.427848  1.782022  -8.479134  -1.427848  -18.771786  25.46637  11.524797  136.635758  57.28641  -135.156763  -23.54877  -2.562243  79.065779  72.815663  -0.881025  21.226924  -19.647913  13.090491  20.774073  51.201382  53.449439  23.038663  -39.340269  -34.362825  -39.576912  89.655925  -14.046891  -23.61885  -50.563265  9.567676  18.099409  -38.157678  5.727305  14.462333  
